<?xml version="1.0" encoding="UTF-8" standalone="no" ?>
<!DOCTYPE svg PUBLIC "-//W3C//DTD SVG 1.1//EN" "http://www.w3.org/Graphics/SVG/1.1/DTD/svg11.dtd">
<svg xmlns="http://www.w3.org/2000/svg" xmlns:xlink="http://www.w3.org/1999/xlink" version="1.1" width="6000" height="6000" viewBox="0 0 6000 6000" xml:space="preserve">
<desc>Created with Fabric.js 5.2.4</desc>
<defs>
</defs>
<rect x="0" y="0" width="100%" height="100%" fill="transparent"></rect>
<g transform="matrix(0 0 0 0 0 0)" id="23c57f23-7bd2-4291-a1f3-b4db81de48a1"  >
</g>
<g transform="matrix(1 0 0 1 3000 3000)" id="3b4827ac-9f68-4a4e-ba48-9c4050562875"  >
<rect style="stroke: none; stroke-width: 1; stroke-dasharray: none; stroke-linecap: butt; stroke-dashoffset: 0; stroke-linejoin: miter; stroke-miterlimit: 4; fill: rgb(255,255,255); fill-rule: nonzero; opacity: 1; visibility: hidden;" vector-effect="non-scaling-stroke"  x="-3000" y="-3000" rx="0" ry="0" width="6000" height="6000" />
</g>
<g transform="matrix(131.46 0 0 131.46 3000 3000)"  >
<path style="stroke: none; stroke-width: 0; stroke-dasharray: none; stroke-linecap: butt; stroke-dashoffset: 0; stroke-linejoin: miter; stroke-miterlimit: 4; fill: rgb(255,255,255); fill-rule: nonzero; opacity: 1;" vector-effect="non-scaling-stroke"  transform=" translate(-141.15, -22.45)" d="M 151.5 42.8 L 145.6 36.9 C 143.2 34.5 139.29999999999998 34.5 136.9 36.9 L 136.9 36.9 L 131 42.8 C 128.3 45.699999999999996 123.8 45.9 120.9 43.199999999999996 C 118 40.49999999999999 117.80000000000001 35.99999999999999 120.5 33.099999999999994 C 120.6 32.99999999999999 120.8 32.8 120.9 32.699999999999996 L 126.80000000000001 26.799999999999997 C 129.20000000000002 24.4 129.20000000000002 20.499999999999996 126.80000000000001 18.099999999999998 L 126.80000000000001 18.099999999999998 L 120.9 12.199999999999998 C 118 9.499999999999996 117.80000000000001 4.999999999999997 120.5 2.099999999999998 C 123.19999999999999 -0.8000000000000016 127.7 -1.0000000000000022 130.6 1.699999999999998 C 130.7 1.799999999999998 130.9 1.999999999999998 131 2.099999999999998 L 136.9 7.899999999999998 C 139.3 10.299999999999997 143.20000000000002 10.299999999999997 145.6 7.899999999999998 L 145.6 7.899999999999998 L 151.5 1.9999999999999973 C 154.3 -0.8000000000000025 158.8 -0.8000000000000025 161.6 1.9999999999999973 C 164.39999999999998 4.799999999999997 164.4 9.299999999999997 161.6 12.099999999999998 L 161.6 12.099999999999998 L 155.7 18 C 153.29999999999998 20.4 153.29999999999998 24.3 155.7 26.7 L 155.7 26.7 L 161.6 32.6 C 164.4 35.4 164.4 39.9 161.6 42.7 C 158.8 45.6 154.3 45.6 151.5 42.8" stroke-linecap="round" />
</g>
</svg>