<svg id="Layer_1" data-name="Layer 1" xmlns="http://www.w3.org/2000/svg" viewBox="0 0 537.68739 283.2825"><defs><style>.cls-1{fill:#212759;}@media (prefers-color-scheme: dark){.cls-1{fill: white;}}</style></defs><title>Logo Vector</title><path class="cls-1" d="M568.24084,282.28607c-.0022-1.72455-.39587-2.34283-2.24622-2.34442-27.41046-.02313-54.82086-.16614-82.23138-.1842-16.87268-.01117-33.74756.32288-50.61694.12195-5.88434-.07007-8.09155.75415-13.00073,6.89459-.04266.05328-.11316.10925-.162.17133-5.8847,7.48395-12.8808,13.21265-22.09979,16.50641-10.32593,3.68927-20.4754,4.53638-30.93011,1.25885-.95331-.29883-2.45844-.83728-2.5495-1.43958-.1543-1.02,1.309-1.356,2.17535-1.77917a55.82893,55.82893,0,0,0,20.763-17.85144,106.03552,106.03552,0,0,0,11.52435-19.24316c3.72339-8.39191,6.10492-16.884,4.86237-26.15063-.91772-6.84406-4.873-10.18506-10.57373-10.85718-11.00464-1.29742-19.95209,3.12592-27.47589,10.63318-11.951,11.9248-20.38379,26.01056-23.75616,42.65143-1.335,6.58728-2.94415,13.60828,1.49786,19.94373.52448.74811.029.93713-.52875,1.18011-7.01691,3.05676-14.25366,5.45508-21.94958,5.65814-6.36981.16809-12.36426-1.78821-18.09436-4.50354-.53821-.255-1.04858-.56891-1.57184-.85547a9.69561,9.69561,0,0,1,1.272-1.01227c10.04248-5.59851,18.75989-12.694,25.51575-22.11084,8.31537-11.59045,13.89917-23.85889,12.27911-38.73553-1.08942-10.00378-10.73364-16.17316-20.33-12.24249-8.97491,3.67615-15.86621,9.77972-22.22418,17.08112-8.36554,9.60681-14.97424,20.02966-18.76544,32.13934-2.23694,7.14508-3.1944,14.57056.48486,21.51453,1.64886,3.11194.90063,3.86224-1.93781,5.15729-11.71368,5.3443-23.12909,5.91742-34.35919-1.16223-1.29907-.819-1.81653-1.61121-.05054-2.50208a31.08635,31.08635,0,0,0,8.5957-6.30371c7.83643-8.28473,14.71216-17.21576,19.6925-27.65527,4.07306-8.53754,6.48236-17.21594,5.81683-26.63141-.20929-2.96039-.65784-6.02692-2.96777-8.32562-3.9743-3.95489-13.1272-5.49268-18.49512-3.0675a62.29435,62.29435,0,0,0-16.95428,11.05658,82.95861,82.95861,0,0,0-18.21851,24.60938c-3.37555,6.83325-5.65161,14.00745-5.703,22.07922-.04236,6.65,1.8512,11.57336,6.44,15.85083.88281.82294.47894.87213-.31885,1.10754-2.57294.75934-5.11749,1.616-7.695,2.3587-8.9444,2.57739-17.96783,3.72083-26.95715.433-4.94324-1.80792-9.87274-6.18665-9.45319-13.37787a25.09964,25.09964,0,0,1,2.30981-9.85992c.922-1.8736.68054-2.66327-1.78772-2.65381-23.99744.092-47.99542.0553-71.99323.05524H38.75861c-8.235,0-8.18335-.00043-8.118,8.384.01331,1.70862.52167,2.10425,2.17365,2.1203,23.01172.22382,46.02612-.50305,69.03864.38434,9.18549.35425,18.39606.05823,27.59521.05829q16.5585.00009,33.11694-.0072c1.288-.00153,2.07483-.19641,1.73791,1.8501a18.26368,18.26368,0,0,0,.1817,8.31232c2.45825,8.00574,8.4137,11.83148,16.23346,13.39734,14.09821,2.82306,27.81769.84363,41.22467-3.62555,3.96332-1.32123,7.04041-1.48614,10.76843.90851,4.941,3.17377,10.70471,4.75677,16.5708,5.55261,13.52411,1.83484,26.0578-1.37323,37.91907-7.71875a3.20636,3.20636,0,0,1,4.04712.24487,35.69907,35.69907,0,0,0,13.80164,6.3147c13.22711,3.00635,25.81708-.02441,38.08-4.82507,2.7359-1.071,5.324-2.53607,7.91681-1.88422.327.08221,1.45715,1.06641,3.30829,2.15814.00012.00006.39178.231.791.4552.81628.4585,16.04059,7.69983,37.24927,1.85815,16.88055-4.64954,30.58307-15.66479,33.483-19.27545,2.97357-3.70239,6.19043-4.33923,10.52612-4.28546,17.45953.21667,34.92334.08972,52.38562.08972h71.51343C568.29938,290.36609,568.251,290.36615,568.24084,282.28607ZM231.92432,294.60016a22.72624,22.72624,0,0,1-3.20343-10.99158,11.08519,11.08519,0,0,1,.14014-1.62024c2.03119-13.37018,7.12329-25.35168,16.63293-35.34662a45.235,45.235,0,0,1,7.28345-6.36261c2.52191-1.7149,5.22815-3.49542,8.31537-2.00458,3.218,1.554,3.3299,4.92834,3.48169,8.00043.30707,6.21515-2.13806,11.79059-4.62158,17.22644-4.13855,9.05823-9.49957,17.34137-17.13171,23.93945-2.90869,2.51453-5.87689,4.96027-8.8219,7.43262C233.21857,295.52881,232.54907,295.75775,231.92432,294.60016Zm62.38586.14319c-5.13824-9.22607-1.64667-18.05493,1.62024-26.666,3.66937-9.67187,9.017-18.41,17.11987-25.13525a22.4943,22.4943,0,0,1,8.26056-4.60632,3.68386,3.68386,0,0,1,4.16638,1.89069c.15363.251.29523.50946.42676.77228a12.86646,12.86646,0,0,1,1.00842,8.20935A66.29192,66.29192,0,0,1,323.062,262.536a72.21091,72.21091,0,0,1-14.91229,23.15112,64.67618,64.67618,0,0,1-12.40442,9.89374C294.62152,296.26611,294.63068,295.31885,294.31018,294.74335Zm61.81482-2.73792c-2.23553-7.23492-.282-14.23077,2.00336-20.97949,2.84375-8.39771,6.54547-16.45135,12.28552-23.40192a33.85876,33.85876,0,0,1,10.76953-9.11951c2.58191-1.29852,3.92609-.899,4.71771-.59076,4.1347,1.61,4.11334,9.81995,4.09888,10.91956-.05835,4.45013-1.51556,7.77441-3.16284,11.21033-3.47449,7.24713-5.88477,14.38263-13.33313,22.82642-4.17877,4.73724-8.77258,9.11584-14.33765,12.147C356.51184,296.46289,356.55939,293.41132,356.125,292.00543Z" transform="translate(-30.59002 -226.79764)"/><path class="cls-1" d="M299.27865,510.01614q-132.47875,0-264.95743.064c-2.8375.00252-3.8432-.50739-3.72145-3.58479.26621-6.72888.08081-6.73383,6.702-6.73377q190.07822.00176,380.15643-.0087,73.746-.01894,147.49178-.28854c2.58768-.00832,3.39674.57188,3.32285,3.26827-.19951,7.27986-.06434,7.28355-7.39664,7.28355Z" transform="translate(-30.59002 -226.79764)"/><path class="cls-1" d="M128.75764,394.93828c0-16.87925.03286-33.75861-.04433-50.63751-.009-1.96551.46646-2.55,2.49562-2.54215q30.11821.11635,60.237.0046c1.891-.00643,2.486.48274,2.4,2.39421-.1545,3.43271-.16843,6.88361.00321,10.31471.10343,2.06815-.42858,2.69991-2.607,2.68438-14.79857-.10553-29.59849-.01629-44.39733-.101-1.99515-.0114-2.5392.5199-2.52773,2.51994q.12658,22.07826-.01087,44.15733c-.01648,2.222.7182,2.59916,2.72,2.58817,14.31892-.07846,28.63878.005,42.9575-.09152,2.15544-.01453,2.75793.62578,2.65308,2.70943-.16462,3.27155-.15312,6.56253-.00311,9.83549.09094,1.98393-.50793,2.57616-2.53723,2.56395-14.39881-.08684-28.79859-.01131-43.19754-.0871-1.917-.01011-2.59929.3861-2.5886,2.46592.0478,9.2879-.02061,9.28822,9.14805,9.28822,12.71943.00006,25.439.0324,38.15807-.03747,1.74335-.00958,2.3797.398,2.30647,2.23925-.143,3.59414-.16474,7.20387.00631,10.79555.09576,2.011-.67352,2.32532-2.46426,2.32014q-30.1184-.08745-60.237.00894c-1.99714.00747-2.526-.51732-2.51647-2.516C128.79236,428.85691,128.75764,411.89751,128.75764,394.93828Z" transform="translate(-30.59002 -226.79764)"/><path class="cls-1" d="M539.44453,392.99382c.00012,15.99686-.07951,31.99447.07184,47.98989.02807,2.95843-1.15564,4.42767-3.68807,5.32078a65.20148,65.20148,0,0,1-16.68,3.10248c-16.61848,1.31883-33.21261,1.55587-49.69277-1.58575-.62628-.11941-1.24336-.29168-1.85968-.458-6.3498-1.71372-6.75867-2.249-6.75867-8.82316,0-31.27386.03366-62.54783-.0639-93.82138-.00779-2.5021.69768-3.11285,3.05824-2.96468a77.866,77.866,0,0,0,9.83139-.0025c2.213-.14175,2.607.66261,2.60262,2.68859-.06255,28.63427-.01043,57.26874-.09782,85.90286-.00771,2.52252.94069,3.70825,3.23643,4.12881a115.604,115.604,0,0,0,41.47409-.02112c2.30842-.412,3.23115-1.63834,3.22371-4.14554-.08467-28.55405-.025-57.10852-.10705-85.66254-.00668-2.31636.57492-3.03431,2.90777-2.89124a101.2779,101.2779,0,0,0,10.313.01371c1.80633-.07373,2.27432.5013,2.26723,2.27856C539.41746,360.36012,539.44436,376.677,539.44453,392.99382Z" transform="translate(-30.59002 -226.79764)"/><path class="cls-1" d="M286.03992,417.5775c6.21008-.16083,5.54341-.91083,8.72042,5.21276,3.01512,8.00256,10.98375,10.25616,18.8436,11.05787,7.88824.80464,15.30885-.97746,21.50783-6.25869,4.35393-3.70934,6.14859-8.4477,4.9517-14.16908-1.13722-5.436-5.30391-7.481-10.0026-8.82876-8.11213-2.32676-16.64344-1.99365-24.838-3.8129-2.33481-.51835-4.67033-1.07854-6.94854-1.79956-10.233-3.23836-17.27886-9.57217-19.18975-20.53163-2.01768-11.572,1.2365-21.40084,10.46616-28.883,12.99847-10.53741,34.15028-11.99124,48.58072-3.48193a30.08719,30.08719,0,0,1,14.48517,19.97984c.476,2.05084-.04228,2.62875-2.14075,2.61012-3.5915-.03193-7.18532.273-10.77946.4-.8272.02927-1.73883.28424-2.15355-.92936-2.85454-8.35263-9.65848-11.339-17.56046-12.33012a27.8874,27.8874,0,0,0-19.68814,4.41c-5.04425,3.43066-7.05847,8.2408-6.21123,14.30156.79825,5.71025,4.61757,8.472,9.63756,10.10622,7.44208,2.42271,15.32836,2.1189,22.91145,3.71095,5.81314,1.22045,11.51142,2.72771,16.67092,5.776,13.578,8.022,16.81465,26.53749,6.96973,39.72047-14.76492,19.7712-50.84824,20.43044-66.33882,1.20252a27.31725,27.31725,0,0,1-6.079-14.86386c-.1795-1.89053.19544-2.84159,2.35321-2.63525C282.02859,417.71569,283.879,417.5775,286.03992,417.5775Z" transform="translate(-30.59002 -226.79764)"/><path class="cls-1" d="M53.72315,394.92114c-.00007-16.87711.03308-33.75437-.0446-50.63112-.00908-1.97373.48111-2.53957,2.50261-2.53169q29.99441.117,59.98934-.00221c2.07037-.00853,2.55168.62982,2.469,2.5672-.15,3.513-.13931,7.04074-.00254,10.5548.07011,1.80167-.498,2.27106-2.27787,2.26269-14.79714-.06981-29.59494-.0027-44.392-.08142-2.07462-.011-2.88737.35877-2.86876,2.70044q.17447,21.95486.008,43.91168c-.0143,2.15517.62649,2.66517,2.70071,2.65283,14.397-.08563,28.795-.01011,43.19213-.0854,1.95115-.01022,2.67022.46339,2.56972,2.516-.168,3.43116-.14774,6.88078-.00513,10.31426.07682,1.84963-.59405,2.26383-2.32679,2.25668-14.47727-.05977-28.95515.00729-43.43215-.07931-2.07-.01236-2.71921.48085-2.70213,2.64158.0721,9.11663-.00215,9.11716,9.11354,9.11722,12.71782.00006,25.43588.03809,38.15321-.04131,1.87573-.01169,2.51908.48595,2.44708,2.39789-.13536,3.59432-.10953,7.19927-.0091,10.79581.04645,1.66348-.48412,2.16794-2.17356,2.16337q-30.3546-.08222-60.70941.00691c-1.8348.00609-2.244-.55441-2.2378-2.29579C53.74737,428.9954,53.72323,411.95824,53.72315,394.92114Z" transform="translate(-30.59002 -226.79764)"/><path class="cls-1" d="M203.96306,394.79663c-.00006-16.79725.03807-33.5947-.04854-50.3915-.01075-2.08748.49011-2.66247,2.63165-2.6528q29.87459.13487,59.74983-.004c2.21613-.0109,2.67372.68509,2.58308,2.70133-.15428,3.43252-.15489,6.88211.00146,10.31443.08766,1.92394-.52945,2.39-2.40867,2.38021-14.79721-.07755-29.59518-.00671-44.39237-.08549-2.00549-.01066-2.75341.36223-2.73727,2.58905q.16,22.07527.00851,44.15221c-.01219,2.05289.63322,2.52926,2.58409,2.51918,14.3973-.07453,28.79541.00123,43.19254-.0859,2.07492-.01257,2.81288.47467,2.68778,2.64829a95.52,95.52,0,0,0-.00639,10.07329c.095,1.96972-.62121,2.38354-2.45552,2.375-14.47734-.0677-28.95535-.00179-43.4326-.07913-1.96383-.01049-2.58028.48776-2.57231,2.52094.03624,9.23347-.02682,9.23367,9.2324,9.23367,12.638,0,25.27622.04351,37.91357-.04485,1.98513-.01389,2.64979.50619,2.56614,2.52645-.152,3.67318-.084,7.35762-.02684,11.0361.02083,1.33922-.4355,1.78913-1.80346,1.7867q-30.71492-.05427-61.42986.01951c-2.071.00735-1.8438-1.11976-1.84311-2.42092Q203.97063,420.3525,203.96306,394.79663Z" transform="translate(-30.59002 -226.79764)"/><path class="cls-1" d="M453.45569,445.78174q-19.3038-48.4108-38.48334-96.87115c-3.47253-8.74719-3.48535-8.74207-12.81781-8.56775a3.23814,3.23814,0,0,1-.47937-.001c-1.05255-.13837-1.53882.37671-1.91974,1.33875q-20.77588,52.46695-41.62292,104.90564c-.5517,1.38751-.333,1.77051,1.186,1.742,4.23627-.07941,8.47705-.10358,12.71161.01282a2.49224,2.49224,0,0,0,2.767-1.92383c3.67621-9.19617,7.4646-18.34741,11.16821-27.53271a2.59422,2.59422,0,0,1,2.768-1.99451q17.27005.11041,34.5412.00293c1.581-.00922,2.19617.62994,2.74017,1.99731,2.92328,7.3468,5.94818,14.65326,8.9408,21.97247,3.04163,7.43927,3.043,7.43872,10.98,7.4386,1.919-.00006,3.85162-.14374,5.75348.03656C454.03571,448.56036,454.3067,447.916,453.45569,445.78174Zm-36.3299-43.24524c-3.75616-.08447-7.51556-.02655-11.27362-.02655-3.6781.00128-7.35828-.07147-11.03351.03137-1.89966.0531-2.09088-.50458-1.47528-2.2019,3.97571-10.96191,7.84857-21.96112,11.78-32.93921a11.12375,11.12375,0,0,1,1.00647-1.751,11.69349,11.69349,0,0,1,.8584,1.61444c3.87555,11.08142,7.70416,22.17932,11.61993,33.24652C419.20062,402.18463,418.7887,402.574,417.12579,402.5365Z" transform="translate(-30.59002 -226.79764)"/></svg>